<?xml version="1.0" standalone="no"?>
<!DOCTYPE svg PUBLIC "-//W3C//DTD SVG 20010904//EN"
 "http://www.w3.org/TR/2001/REC-SVG-20010904/DTD/svg10.dtd">
<svg version="1.0" xmlns="http://www.w3.org/2000/svg"
 width="500.000000pt" height="500.000000pt" viewBox="0 0 500.000000 500.000000"
 preserveAspectRatio="xMidYMid meet">

<g transform="translate(0.000000,500.000000) scale(0.100000,-0.100000)"
fill="#000000" stroke="none">
<path d="M3461 4765 c-193 -42 -363 -135 -487 -267 -138 -146 -229 -356 -241
-557 l-6 -94 90 6 c225 14 435 116 599 290 150 159 224 331 249 580 l5 57 -72
-1 c-40 0 -102 -7 -137 -14z"/>
<path d="M2379 4497 c-69 -46 -69 -44 -69 -509 0 -353 -2 -418 -14 -418 -8 0
-81 29 -163 64 -310 133 -411 159 -623 159 -172 0 -253 -18 -397 -87 -336
-162 -541 -420 -637 -802 -112 -442 -76 -1008 94 -1486 22 -62 44 -119 48
-126 6 -9 29 -1 88 33 426 243 1038 230 1696 -38 l87 -35 -48 60 c-102 126
-134 234 -113 382 12 79 70 268 122 396 60 147 68 270 16 270 -29 -1 -105 -36
-112 -53 -2 -7 2 -27 11 -43 22 -42 19 -59 -15 -98 -43 -48 -108 -71 -201 -71
-65 0 -85 5 -142 33 -117 58 -214 189 -253 342 -22 86 -22 213 -1 264 36 83
199 206 343 258 82 30 231 36 310 13 128 -37 260 -127 346 -235 141 -177 255
-470 317 -815 41 -232 54 -419 48 -735 -6 -350 -26 -509 -88 -698 -17 -50 -34
-75 -87 -130 -37 -38 -91 -85 -120 -104 -48 -32 -51 -36 -30 -42 53 -14 189
-18 270 -7 303 40 567 175 822 420 298 287 499 729 592 1298 21 133 30 528 15
664 -42 368 -166 667 -355 855 -73 72 -208 170 -306 219 -150 76 -327 112
-490 100 -182 -13 -306 -49 -590 -174 -63 -28 -121 -51 -127 -51 -10 0 -13 89
-13 413 0 385 -2 415 -20 454 -36 80 -138 109 -211 60z m1405 -930 c33 -22 97
-78 142 -123 210 -213 349 -528 399 -907 17 -130 21 -417 6 -402 -5 6 -23 91
-39 190 -17 99 -42 234 -57 300 -80 361 -238 667 -472 915 -90 96 -87 99 21
27z"/>
<path d="M1310 1354 c-116 -14 -177 -27 -261 -53 -90 -28 -209 -76 -209 -85 0
-2 27 5 61 15 240 75 585 94 875 49 99 -15 359 -67 424 -85 92 -24 67 -10 -57
33 -141 50 -242 75 -399 102 -112 19 -361 33 -434 24z"/>
</g>
</svg>
